<?xml version="1.0" encoding="UTF-8" standalone="no"?>
<svg
   aria-hidden="true"
   role="img"
   class="iconify iconify--logos"
   width="31.88"
   height="32"
   preserveAspectRatio="xMidYMid meet"
   viewBox="0 0 256 257"
   version="1.1"
   id="svg20"
   sodipodi:docname="vite.svg"
   inkscape:version="1.1 (c68e22c387, 2021-05-23)"
   xmlns:inkscape="http://www.inkscape.org/namespaces/inkscape"
   xmlns:sodipodi="http://sodipodi.sourceforge.net/DTD/sodipodi-0.dtd"
   xmlns="http://www.w3.org/2000/svg"
   xmlns:svg="http://www.w3.org/2000/svg">
  <sodipodi:namedview
     id="namedview22"
     pagecolor="#ffffff"
     bordercolor="#666666"
     borderopacity="1.0"
     inkscape:pageshadow="2"
     inkscape:pageopacity="0.0"
     inkscape:pagecheckerboard="0"
     showgrid="false"
     inkscape:zoom="17.589281"
     inkscape:cx="11.086297"
     inkscape:cy="20.125894"
     inkscape:window-width="1920"
     inkscape:window-height="974"
     inkscape:window-x="-11"
     inkscape:window-y="-11"
     inkscape:window-maximized="1"
     inkscape:current-layer="svg20" />
  <defs
     id="defs14">
    <linearGradient
       id="IconifyId1813088fe1fbc01fb466"
       x1="-.828%"
       x2="57.636%"
       y1="7.652%"
       y2="78.411%">
      <stop
         offset="0%"
         stop-color="#41D1FF"
         id="stop2" />
      <stop
         offset="100%"
         stop-color="#BD34FE"
         id="stop4" />
    </linearGradient>
    <linearGradient
       id="IconifyId1813088fe1fbc01fb467"
       x1="43.376%"
       x2="50.316%"
       y1="2.242%"
       y2="89.03%">
      <stop
         offset="0%"
         stop-color="#FFEA83"
         id="stop7" />
      <stop
         offset="8.333%"
         stop-color="#FFDD35"
         id="stop9" />
      <stop
         offset="100%"
         stop-color="#FFA800"
         id="stop11" />
    </linearGradient>
  </defs>
  <g
     id="g940"
     transform="translate(0.91319821,-3.6527928)">
    <circle
       style="fill:#000000;stroke-width:2.35367"
       id="path1728"
       cx="127.43562"
       cy="131.6165"
       r="126.10487"
       inkscape:export-filename="C:\Users\ACER\Desktop\Fav.png"
       inkscape:export-xdpi="500"
       inkscape:export-ydpi="500" />
    <g
       id="g1636"
       transform="matrix(12.81906,0,0,12.81906,-2007.4482,-298.67733)"
       inkscape:export-filename="C:\Users\ACER\Desktop\Fav.png"
       inkscape:export-xdpi="500"
       inkscape:export-ydpi="500"
       style="fill:#999999">
      <path
         style="fill:#f5cb5c;fill-opacity:1;stroke-width:0.176389"
         d="m 167.3849,33.580401 v -4.7625 h 3.08681 3.0868 v 0.79375 0.79375 h -2.20486 -2.20486 v 1.234723 1.234722 h 2.20486 2.20486 v 0.79375 0.79375 h -2.20486 -2.20486 v 1.940278 1.940278 h -0.88194 -0.88195 z"
         id="path831"
         sodipodi:nodetypes="ccccccccccccccccccccc" />
      <path
         style="fill:#ffffff;stroke-width:0.176389"
         d="m 160.01126,33.567069 v -4.775832 l 2.45722,0.05743 c 2.67007,0.0624 2.96433,0.161058 3.79368,1.271887 0.5195,0.69581 0.5195,2.696107 0,3.391917 -0.6924,0.927403 -1.20961,1.172037 -2.89062,1.367244 l -1.5964,0.18538 v 1.638903 1.638904 h -0.88194 -0.88194 z m 4.52691,-0.793376 c 0.37612,-0.376128 0.43623,-0.562989 0.35067,-1.090215 -0.15522,-0.956511 -0.47486,-1.168779 -1.87954,-1.24815 l -1.23416,-0.06974 v 1.431016 1.431016 h 1.15455 c 1.00512,0 1.21329,-0.05875 1.60848,-0.453931 z"
         id="path833"
         sodipodi:nodetypes="ccssssccccccssscccsss" />
    </g>
  </g>
</svg>
